<?xml version="1.0" encoding="UTF-8"?>
<svg version="1.1" xmlns="http://www.w3.org/2000/svg" width="762" height="682">
<path d="M0 0 C1.15371094 0.61230469 2.30742187 1.22460938 3.49609375 1.85546875 C16.85254333 9.20833827 29.33351797 18.19943047 41 28 C41.52658203 28.43779785 42.05316406 28.8755957 42.59570312 29.32666016 C53.61232634 38.50200446 63.88152466 48.01396289 72.83203125 59.27734375 C74.23796131 61.04298924 75.67162233 62.78703823 77.13671875 64.50390625 C84.20348569 72.81401818 90.14971707 81.8075354 96 91 C96.44520996 91.69899414 96.89041992 92.39798828 97.34912109 93.11816406 C115.61443882 122.14041711 128.49881154 156.67447948 131 191 C131.63800537 191.14751709 132.27601074 191.29503418 132.93334961 191.44702148 C156.12315004 196.98236746 179.23570076 208.87527004 199 222 C194.99081101 226.4800725 189.35251013 228.82371178 184.125 231.625 C183.25513962 232.09220459 183.25513962 232.09220459 182.3677063 232.56884766 C174.68946071 236.67974749 166.94445692 240.56197607 158.9375 244 C158.0933252 244.3707666 157.24915039 244.7415332 156.37939453 245.12353516 C152.30281978 246.85272659 148.45784263 248.19531164 144.09765625 249 C137.47130777 250.28345684 137.47130777 250.28345684 132 254 C128.83927087 260.73833431 128.35943287 268.43591084 127.46582031 275.74072266 C126.78007884 280.53875657 125.56366227 285.10938077 124.1875 289.75 C123.81467896 291.0189209 123.81467896 291.0189209 123.43432617 292.31347656 C118.72944816 307.85693353 112.66671673 322.69528284 105 337 C104.62649414 337.71220703 104.25298828 338.42441406 103.86816406 339.15820312 C95.56124627 354.96970527 85.67266445 369.46490672 74 383 C73.37738281 383.73347656 72.75476563 384.46695312 72.11328125 385.22265625 C60.01389091 399.08109352 46.90623067 412.18970427 32 423 C30.85115255 423.85491814 29.70272016 424.71039429 28.5546875 425.56640625 C15.50737634 435.19147186 1.64417834 443.07677248 -13 450 C-13.61891113 450.29616211 -14.23782227 450.59232422 -14.87548828 450.89746094 C-34.27636658 460.09787745 -54.88564484 466.2656359 -76 470 C-76.91056152 470.16371094 -77.82112305 470.32742188 -78.75927734 470.49609375 C-139.98562226 481.01003767 -206.7944074 465.94544885 -257.80712891 430.5625 C-269.58688738 422.16899586 -280.64642057 413.0954816 -291 403 C-291.97114746 402.05954834 -291.97114746 402.05954834 -292.96191406 401.10009766 C-301.16041787 393.13479059 -309.11294609 385.15096437 -316 376 C-316.47469727 375.37996094 -316.94939453 374.75992187 -317.43847656 374.12109375 C-329.26067912 358.61318897 -338.68995027 342.06004389 -347.25 324.5625 C-347.72840332 323.59739502 -348.20680664 322.63229004 -348.69970703 321.63793945 C-352.82395237 312.99079723 -352.82395237 312.99079723 -352 308 C-349.76793569 305.15219381 -348.45007001 304.15002334 -345 303 C-342.60509014 302.93029948 -340.20832309 302.91551997 -337.8125 302.9375 C-336.54019531 302.94652344 -335.26789063 302.95554687 -333.95703125 302.96484375 C-332.49330078 302.98224609 -332.49330078 302.98224609 -331 303 C-330.53851563 303.93457031 -330.07703125 304.86914062 -329.6015625 305.83203125 C-327.81723798 309.43371473 -326.0128355 313.02503374 -324.20166016 316.61328125 C-323.41338774 318.17893568 -322.62906699 319.74658728 -321.84912109 321.31640625 C-313.46051133 338.15774254 -303.40207146 353.81295751 -291 368 C-290.32066406 368.78890625 -289.64132812 369.5778125 -288.94140625 370.390625 C-255.84862318 408.03746078 -212.28222503 433.64789203 -163.25 444.25 C-162.55519531 444.40114258 -161.86039063 444.55228516 -161.14453125 444.70800781 C-146.71100056 447.64106015 -132.49302965 448.37552899 -117.8125 448.3125 C-116.45513229 448.30926727 -116.45513229 448.30926727 -115.07034302 448.30596924 C-101.83718389 448.25540578 -88.96164177 447.89931461 -76 445 C-74.59041016 444.69400879 -74.59041016 444.69400879 -73.15234375 444.38183594 C-38.27159876 436.65181277 -5.93284611 422.528944 22 400 C22.52303711 399.57847656 23.04607422 399.15695312 23.58496094 398.72265625 C38.1029483 386.91663235 51.70208811 373.78951457 62.7734375 358.66650391 C63.98268436 357.02352638 65.22225397 355.40779252 66.46875 353.79296875 C87.37315231 326.21932246 100.57214354 292.0039243 106 258 C104.95585938 258.03480469 103.91171875 258.06960938 102.8359375 258.10546875 C87.64752905 258.44672231 71.6678674 257.50041943 57.21875 252.453125 C52.32996551 251.45471127 48.16529147 253.1724372 43.9375 255.51953125 C42.98786377 256.04071533 42.03822754 256.56189941 41.05981445 257.09887695 C40.05007568 257.66437256 39.04033691 258.22986816 38 258.8125 C36.93547607 259.39926514 35.87095215 259.98603027 34.77416992 260.59057617 C32.57207824 261.80449329 30.37180703 263.02171849 28.17333984 264.2421875 C24.43665591 266.31205396 20.68494647 268.35315995 16.93066406 270.39086914 C9.96827856 274.17135877 3.02307701 277.98273818 -3.91015625 281.81640625 C-4.50711807 282.14646667 -5.1040799 282.4765271 -5.71913147 282.81658936 C-8.18194137 284.17838876 -10.64474646 285.54019667 -13.10733032 286.90240479 C-21.83067875 291.72590501 -30.58711337 296.48224758 -39.375 301.1875 C-47.47535215 305.5260144 -55.5152684 309.95224946 -63.5 314.5 C-91.40411629 330.36539381 -119.96250926 344.89916241 -148.99511719 358.58300781 C-151.08049157 359.56639365 -153.16437431 360.55294648 -155.24707031 361.54199219 C-168.58556396 367.8707554 -181.9924056 373.96084597 -195.625 379.625 C-196.81561035 380.12185303 -198.0062207 380.61870605 -199.23291016 381.13061523 C-205.73534135 383.79978597 -212.21554674 386.15390339 -219 388 C-215.65760311 383.74827454 -212.36873659 380.50470876 -208 377.25 C-206.84360988 376.38039463 -205.68736393 375.51059752 -204.53125 374.640625 C-203.94472656 374.20298828 -203.35820312 373.76535156 -202.75390625 373.31445312 C-199.9816418 371.23679836 -197.24203085 369.11729067 -194.5 367 C-193.41162176 366.16254798 -192.3230799 365.32530856 -191.234375 364.48828125 C-189.11928247 362.86133583 -187.00480548 361.2336002 -184.890625 359.60546875 C-175.9427285 352.71647878 -166.97527356 345.8532769 -158 339 C-157.15808105 338.35691895 -156.31616211 337.71383789 -155.44873047 337.05126953 C-143.37835058 327.83384794 -131.26810618 318.67333514 -119.10253906 309.58203125 C-111.82999333 304.14530991 -104.57756933 298.68462782 -97.36352539 293.17041016 C-87.43688341 285.5830179 -77.43483123 278.11029137 -67.35595703 270.7265625 C-60.99806431 266.06718247 -54.65173053 261.39208003 -48.31201172 256.70800781 C-46.75181195 255.55540406 -45.19092298 254.40373273 -43.62939453 253.25292969 C-41.37474655 251.58953391 -39.12429994 249.92061757 -36.875 248.25 C-36.19348877 247.74839355 -35.51197754 247.24678711 -34.80981445 246.72998047 C-31.39317559 244.32596615 -31.39317559 244.32596615 -29 241 C-29.55036948 241.0018986 -30.10073896 241.0037972 -30.6677863 241.00575334 C-63.27657388 241.11760823 -95.88531074 241.20341474 -128.4942459 241.25532665 C-132.40835501 241.26158029 -136.32246373 241.26805189 -140.23657227 241.2746582 C-141.40543062 241.27662553 -141.40543062 241.27662553 -142.59790228 241.2786326 C-155.22047774 241.30039786 -167.84293952 241.33982551 -180.46544751 241.38576398 C-193.41427666 241.43249754 -206.3630462 241.46028881 -219.31195623 241.47044247 C-227.30422013 241.47730811 -235.29616272 241.49900355 -243.28832773 241.53958233 C-249.4135082 241.5691004 -255.53844296 241.57228198 -261.66368484 241.56553841 C-264.17880675 241.56691724 -266.6939405 241.57690637 -269.2089901 241.59602737 C-272.63649851 241.62081361 -276.06261923 241.6149565 -279.49015808 241.60127258 C-280.49113138 241.61583679 -281.49210468 241.630401 -282.5234105 241.64540654 C-287.20370049 241.59471311 -289.31912443 241.51044821 -293.16077137 238.63038921 C-295 236 -295 236 -294.9375 233.3125 C-294 231 -294 231 -292 229 C-289.83931786 228.74519098 -289.83931786 228.74519098 -287.09535313 228.73828697 C-286.05167121 228.73082148 -285.0079893 228.72335599 -283.93268067 228.71566427 C-282.19840448 228.71856637 -282.19840448 228.71856637 -280.42909241 228.7215271 C-279.20683203 228.7157347 -277.98457165 228.7099423 -276.72527307 228.70397437 C-273.31796499 228.68985645 -269.91085299 228.68473958 -266.50352967 228.68332577 C-262.82812968 228.67964006 -259.15277526 228.66448071 -255.47740173 228.65071106 C-248.24413639 228.62542085 -241.0108854 228.61075063 -233.77758629 228.59939598 C-225.2620536 228.58555112 -216.74656415 228.5605567 -208.23105984 228.53501268 C-192.91325055 228.4893837 -177.59543319 228.4528898 -162.27758789 228.421875 C-147.64117826 228.39222361 -133.00479165 228.35800311 -118.3684082 228.31738281 C-117.03603581 228.31368733 -117.03603581 228.31368733 -115.6767468 228.30991718 C-112.09909446 228.29997882 -108.52144218 228.29001734 -104.94379 228.28002284 C-88.20341958 228.23334431 -71.46303928 228.19032252 -54.72265625 228.1484375 C-53.85864671 228.14627271 -52.99463717 228.14410792 -52.10444552 228.14187753 C18.01191264 227.96678541 18.01191264 227.96678541 51.57200468 228.04009986 C55.12451377 228.04772373 58.67702317 228.05421905 62.2295351 228.06036568 C71.6385932 228.07727347 81.04750557 228.09659055 90.45646721 228.14353335 C107.40117007 228.22263612 124.28788096 228.13916717 141.20678711 227.11865234 C142.50566895 227.04058161 143.8045508 226.96251087 145.1427927 226.88207436 C152.48287415 226.38367285 159.70254656 225.54950354 166.96929264 224.39817238 C169.69375054 224.04023486 172.25748546 223.92411151 175 224 C174.67 223.34 174.34 222.68 174 222 C145.31518755 215.51022343 114.75604818 216.7421811 85.54123712 216.87779903 C80.10841716 216.90010937 74.67557692 216.90897698 69.24272156 216.91827393 C68.09885642 216.92027164 66.95499128 216.92226936 65.77646357 216.92432761 C63.39714915 216.92847211 61.01783467 216.9325788 58.63852012 216.9366498 C54.90840236 216.94347243 51.17828909 216.95156879 47.44817448 216.95992661 C26.70318912 217.00467083 5.95839296 217.00118759 -14.78662109 216.97851562 C-16.01980138 216.97716982 -16.01980138 216.97716982 -17.27789441 216.97579682 C-47.66005116 216.94198246 -78.04217133 216.88442049 -108.42426872 216.81612396 C-111.98702862 216.80817744 -115.54978865 216.80029858 -119.11254883 216.79248047 C-119.99636561 216.79053848 -120.8801824 216.78859648 -121.79078151 216.78659564 C-136.38020611 216.75497374 -150.96961436 216.73840467 -165.55906703 216.72680578 C-180.7463319 216.71442295 -195.93351477 216.68706786 -211.12072784 216.64538693 C-220.39564256 216.62038705 -229.6704217 216.60687259 -238.94537065 216.60857043 C-245.22808809 216.60860003 -251.51066398 216.59409545 -257.79332622 216.56783572 C-261.40959621 216.55314835 -265.02557562 216.54502539 -268.6418705 216.55419731 C-272.55043343 216.56394624 -276.45848 216.5430746 -280.36698914 216.51898193 C-281.51432311 216.52674235 -282.66165709 216.53450277 -283.84375876 216.54249835 C-284.88409823 216.53105076 -285.9244377 216.51960317 -286.9963026 216.50780869 C-288.3469996 216.50553036 -288.3469996 216.50553036 -289.72498339 216.50320601 C-292 216 -292 216 -293.81273109 214.12451196 C-295 212 -295 212 -295 209.5 C-293.59843347 205.99608366 -292.24850495 204.96964498 -289 203 C-285.49890182 202.40377594 -282.03469712 202.45353771 -278.49015808 202.48101807 C-276.88503915 202.46976619 -276.88503915 202.46976619 -275.24749357 202.458287 C-271.65592931 202.43796061 -268.06499337 202.44612259 -264.47338867 202.45410156 C-261.90124892 202.44536929 -259.3291146 202.43488473 -256.75698853 202.42277527 C-251.21636895 202.39946016 -245.67588027 202.39071485 -240.13521385 202.39188385 C-232.1243877 202.39355293 -224.11373606 202.37322005 -216.10295645 202.34752855 C-203.10583689 202.30644227 -190.10874872 202.28313331 -177.11157227 202.27099609 C-164.48654158 202.25916835 -151.86156998 202.23897308 -139.23657227 202.20751953 C-138.06913392 202.20461538 -138.06913392 202.20461538 -136.87811097 202.20165256 C-132.97362119 202.191888 -129.06913185 202.18195889 -125.16464269 202.17194796 C-92.7764539 202.089119 -60.38827687 202.0351376 -28 202 C-31.38464964 199.4156605 -34.7703554 196.83270812 -38.15625 194.25 C-39.11176758 193.52039063 -40.06728516 192.79078125 -41.05175781 192.0390625 C-42.4463623 190.97558594 -42.4463623 190.97558594 -43.86914062 189.890625 C-44.72012329 189.24125977 -45.57110596 188.59189453 -46.44787598 187.92285156 C-49.9087831 185.31529385 -53.41760251 182.77710589 -56.9375 180.25 C-61.50485429 176.89439276 -65.99762303 173.44207694 -70.5 170 C-76.64647115 165.30301745 -82.79916631 160.62862552 -89.078125 156.109375 C-99.77071602 148.3901248 -110.36833404 140.5462028 -120.79296875 132.46875 C-124.33329948 129.73239 -127.9157468 127.05342113 -131.5 124.375 C-145.7623393 113.70973744 -159.89540872 102.87267831 -174 92 C-175.50626953 90.84371094 -175.50626953 90.84371094 -177.04296875 89.6640625 C-186.39466829 82.48474533 -195.71045997 75.25957005 -205 68 C-205.55977539 67.56316895 -206.11955078 67.12633789 -206.69628906 66.67626953 C-211.39343543 63.00270327 -215.91744968 59.35472034 -220 55 C-211.76561856 57.22122499 -203.97231049 60.31041415 -196.125 63.625 C-195.46238159 63.90355835 -194.79976318 64.1821167 -194.11706543 64.46911621 C-177.60170998 71.43071519 -161.43512772 79.11682722 -145.29266357 86.89599609 C-142.99585762 88.00199471 -140.6976019 89.10492542 -138.39892578 90.20703125 C-114.63428942 101.60686004 -90.9992378 113.13433501 -68.29589844 126.55932617 C-60.46198403 131.18388329 -52.53688477 135.62436715 -44.5625 140 C-43.9500946 140.33616333 -43.33768921 140.67232666 -42.70672607 141.01867676 C-40.25005681 142.36709059 -37.79338015 143.71549074 -35.33642578 145.06338501 C-29.3297867 148.36167343 -23.35032711 151.70785534 -17.375 155.0625 C9.01353257 169.8621126 9.01353257 169.8621126 35.56552124 184.36550903 C36.80345686 185.03308329 38.04063349 185.70206711 39.27700806 186.37252808 C40.99340296 187.30239939 42.71342374 188.22556847 44.43359375 189.1484375 C45.41384521 189.67614746 46.39409668 190.20385742 47.40405273 190.74755859 C52.67916397 193.29259016 55.22998782 192.87622986 60.875 191.1875 C75.97817916 186.94839512 90.40211652 186.73795233 106 187 C96.80969014 133.15559637 69.86207189 80.85727906 26 47 C24.29106145 45.54237594 22.58274642 44.08402059 20.875 42.625 C-23.30129622 6.59468748 -82.18195772 -9.35856037 -138.54296875 -4.5 C-188.04127462 0.55084754 -232.75191765 20.13108409 -270 53 C-270.91265625 53.79019531 -271.8253125 54.58039063 -272.765625 55.39453125 C-276.92789409 58.75545132 -276.92789409 58.75545132 -280 63 C-280.66 63 -281.32 63 -282 63 C-282.22945313 63.55300781 -282.45890625 64.10601562 -282.6953125 64.67578125 C-284.36424405 67.64887788 -286.49619322 69.74318984 -288.875 72.1875 C-307.27397363 91.70611774 -319.85390902 116.40341582 -330 141 C-332.75026417 141.05404449 -335.49946203 141.09369306 -338.25 141.125 C-339.02730469 141.14175781 -339.80460938 141.15851563 -340.60546875 141.17578125 C-347.96292928 141.23866553 -347.96292928 141.23866553 -351 139 C-353.05492958 134.89014083 -352.25711551 130.77397911 -350.85546875 126.5546875 C-350.31535385 125.32105227 -349.75828204 124.09474909 -349.1875 122.875 C-348.8783667 122.19614746 -348.5692334 121.51729492 -348.25073242 120.81787109 C-336.70629184 95.8957406 -322.50596818 72.90990155 -303.65625 52.84375 C-301.19576155 50.20958001 -298.8132524 47.52286541 -296.4375 44.8125 C-291.93400685 39.81742837 -287.11990269 35.35604624 -282 31 C-281.42894531 30.51128418 -280.85789062 30.02256836 -280.26953125 29.51904297 C-207.60631288 -32.30943451 -102.97004903 -47.51137804 0 0 Z " fill="#3B3C3F" transform="translate(493,114)"/>
<path d="M0 0 C1.15250899 -0.00796419 2.30501798 -0.01592839 3.49245149 -0.02413392 C5.38495174 -0.00665687 5.38495174 -0.00665687 7.31568432 0.01117325 C8.67293738 0.00942871 10.03018914 0.00592596 11.38743371 0.00081658 C15.11602576 -0.00813054 18.84415851 0.00787621 22.57269204 0.02792883 C26.59377313 0.04519341 30.61482806 0.03935783 34.63593578 0.03631973 C41.60241177 0.03422174 48.56873797 0.04677785 55.53517628 0.06927109 C65.60746634 0.10177134 75.67968393 0.11219608 85.75202074 0.11722305 C102.093448 0.12597881 118.43479541 0.152602 134.77617931 0.1904335 C150.65084973 0.22714633 166.52549846 0.25546166 182.40020275 0.27246475 C183.86783415 0.27404109 183.86783415 0.27404109 185.36511467 0.27564928 C190.27353673 0.28086941 195.18195895 0.28592424 200.09038126 0.29089689 C240.81439749 0.33236766 281.53832583 0.40282373 322.2622633 0.49219131 C322.2622633 1.81219131 322.2622633 3.13219131 322.2622633 4.49219131 C320.0747633 5.92969131 320.0747633 5.92969131 317.2622633 7.49219131 C316.4578883 8.33781631 315.6535133 9.18344131 314.8247633 10.05469131 C310.64988463 14.02591736 306.24507402 14.74346975 300.61288452 14.73384285 C299.50551872 14.73680835 298.39815292 14.73977384 297.25723058 14.7428292 C296.05110527 14.73584105 294.84497997 14.7288529 293.60230541 14.72165298 C292.31297657 14.72210055 291.02364772 14.72254811 289.69524831 14.72300923 C286.12304503 14.72391261 282.55097755 14.71222938 278.97880495 14.69841576 C275.12401933 14.68566803 271.26922726 14.68448047 267.41442394 14.68172073 C259.86629837 14.67433592 252.31824039 14.65575564 244.77014772 14.63275509 C238.63759749 14.61411595 232.50504762 14.5986839 226.37248325 14.58551788 C208.991773 14.54784168 191.61111459 14.50176532 174.23045657 14.44484435 C173.29373355 14.44177744 172.35701053 14.43871053 171.39190197 14.43555069 C170.45403826 14.43247831 169.51617454 14.42940594 168.54989072 14.42624046 C153.33333838 14.37690479 138.11682136 14.34756756 122.90020511 14.32726811 C107.28204433 14.30620699 91.66397876 14.27034347 76.04588765 14.21891892 C67.27483876 14.19034348 58.50387319 14.16794742 49.7327776 14.16143799 C42.26915895 14.15578052 34.80573402 14.13642502 27.34220401 14.09905343 C23.53219145 14.08037301 19.7224463 14.0682216 15.91238499 14.07330513 C11.78839063 14.07861627 7.66516846 14.05324147 3.54127026 14.0246315 C2.32845279 14.03102768 1.11563532 14.03742386 -0.1339342 14.04401386 C-1.23347676 14.03133287 -2.33301932 14.01865188 -3.46588135 14.00558662 C-4.41838498 14.0029836 -5.37088862 14.00038057 -6.352256 13.99769866 C-8.7377367 13.49219131 -8.7377367 13.49219131 -10.56722766 11.61635411 C-11.7377367 9.49219131 -11.7377367 9.49219131 -11.7377367 6.99219131 C-9.57461623 1.58439014 -5.52865972 -0.00844392 0 0 Z " fill="#95323F" transform="translate(209.73773670196533,316.50780868530273)"/>
<path d="M0 0 C3.68139521 3.08144543 3.68139521 3.08144543 8 5 C8 5.66 8 6.32 8 7 C-50.46099242 8.35284427 -108.93807175 8.12821717 -167.41014671 7.94991684 C-170.39558273 7.94085848 -173.38101884 7.93183652 -176.36645508 7.92285156 C-177.47784979 7.91948903 -177.47784979 7.91948903 -178.61169691 7.91605857 C-190.79002395 7.87973666 -202.96828652 7.86487725 -215.14666211 7.85809408 C-227.79036193 7.85070579 -240.43391448 7.8246739 -253.07753903 7.78014576 C-260.12295813 7.7557935 -267.16818661 7.73949801 -274.21365166 7.74441147 C-280.7784834 7.7489416 -287.34288787 7.72831033 -293.90763474 7.69023323 C-296.31312029 7.68037315 -298.71865809 7.67907001 -301.12415123 7.68686104 C-304.39925867 7.69618482 -307.67277977 7.67499911 -310.94773865 7.64596558 C-311.9023278 7.65595672 -312.85691696 7.66594785 -313.84043306 7.67624176 C-318.41135858 7.60300085 -320.38645796 7.46471566 -324.13217258 4.6275959 C-326 2 -326 2 -325.9375 -0.6875 C-325 -3 -325 -3 -323 -5 C-320.74101913 -5.26171303 -320.74101913 -5.26171303 -317.8567791 -5.2784729 C-316.76046099 -5.28963859 -315.66414287 -5.30080427 -314.534603 -5.31230831 C-313.32023693 -5.3144663 -312.10587085 -5.31662428 -310.85470581 -5.31884766 C-309.57232249 -5.32887345 -308.28993918 -5.33889925 -306.96869576 -5.34922886 C-303.39717679 -5.37677957 -299.82569733 -5.39173604 -296.25409937 -5.40462852 C-292.40659373 -5.42061702 -288.55916612 -5.44796521 -284.7117157 -5.47370911 C-276.2921855 -5.52773953 -267.87262587 -5.56663877 -259.45300055 -5.60230637 C-254.19679668 -5.62459708 -248.94060944 -5.64981745 -243.68442154 -5.67556763 C-229.13548671 -5.74628314 -214.58654562 -5.81318716 -200.03753471 -5.86628723 C-199.10581991 -5.86969397 -198.1741051 -5.87310072 -197.21415652 -5.8766107 C-195.8132034 -5.88172795 -195.8132034 -5.88172795 -194.38394821 -5.88694859 C-192.49131701 -5.8938644 -190.59868584 -5.90078649 -188.70605469 -5.90771484 C-187.29783344 -5.91286506 -187.29783344 -5.91286506 -185.86116327 -5.91811931 C-170.65403249 -5.9744578 -155.44718067 -6.05787067 -140.24024783 -6.1529932 C-124.63247883 -6.25023516 -109.02473494 -6.32487471 -93.41674817 -6.37683868 C-84.65148649 -6.40654832 -75.88650779 -6.44597979 -67.12142563 -6.51031494 C-59.65609695 -6.565001 -52.19103216 -6.59903544 -44.72550039 -6.60620445 C-40.91669727 -6.61047892 -37.10858881 -6.6244637 -33.29998207 -6.66477394 C-29.16867825 -6.70821973 -25.03872046 -6.70487079 -20.90719604 -6.69702148 C-19.10572343 -6.72702712 -19.10572343 -6.72702712 -17.26785743 -6.75763893 C-9.64994349 -6.69121098 -5.49113473 -5.29166362 0 0 Z " fill="#953541" transform="translate(524,348)"/>
<path d="M0 0 C1.67152691 0.86739376 3.34307746 1.73474196 5.01464844 2.60205078 C5.8874646 3.07056458 6.76028076 3.53907837 7.6595459 4.02178955 C11.37043751 5.98818451 15.1408875 7.82256703 18.91534424 9.66317749 C22.80796705 11.56454547 26.68371104 13.49907101 30.56005859 15.43334961 C33.56459702 16.93064195 36.57330139 18.41935461 39.58203125 19.90820312 C41.49765555 20.86276023 43.41303023 21.81781846 45.328125 22.7734375 C46.22580597 23.21610458 47.12348694 23.65877167 48.04837036 24.11485291 C48.86788177 24.52610916 49.68739319 24.93736542 50.53173828 25.36108398 C51.25386505 25.72032455 51.97599182 26.07956512 52.72000122 26.44969177 C54.3828125 27.46484375 54.3828125 27.46484375 55.3828125 29.46484375 C49.10783577 32.61516337 42.83119543 35.76215023 36.5534668 38.90698242 C34.42451477 39.97395022 32.29592442 41.04164003 30.16772461 42.11010742 C24.13809938 45.13697078 18.1002945 48.14629184 12.05194092 51.13555908 C9.63140203 52.3410407 7.22494146 53.5703587 4.82080078 54.80810547 C3.50986926 55.46407449 2.19854462 56.11925884 0.88671875 56.7734375 C-0.73834595 57.60379517 -0.73834595 57.60379517 -2.39624023 58.45092773 C-9.14209713 60.57444351 -15.07087825 58.20189853 -21.33203125 55.54296875 C-22.05341278 55.24630814 -22.77479431 54.94964752 -23.51803589 54.64399719 C-25.86722121 53.67615565 -28.21078303 52.69539574 -30.5546875 51.71484375 C-33.01866637 50.69686811 -35.48415306 49.68261062 -37.94981384 48.66871643 C-39.63599849 47.97527873 -41.32175616 47.2808019 -43.00709534 46.58531189 C-51.777354 42.97096632 -60.59839087 39.48928766 -69.4296875 36.02734375 C-70.87298397 35.46065903 -72.31626249 34.89392859 -73.75952148 34.32714844 C-77.04462316 33.03770007 -80.33059956 31.75049992 -83.6171875 30.46484375 C-83.6171875 29.47484375 -83.6171875 28.48484375 -83.6171875 27.46484375 C-82.58537354 27.04710693 -81.55355957 26.62937012 -80.49047852 26.19897461 C-76.57442219 24.61337644 -72.65863537 23.0271136 -68.74291992 21.44067383 C-67.06460523 20.76081171 -65.38622241 20.08111774 -63.70776367 19.40161133 C-61.26201669 18.41143927 -58.81652939 17.4206282 -56.37109375 16.4296875 C-55.56362701 16.1028598 -54.75616028 15.7760321 -53.92422485 15.43930054 C-49.83207799 13.78022814 -45.74662698 12.10695453 -41.67138672 10.40673828 C-40.88795395 10.08065079 -40.10452118 9.75456329 -39.29734802 9.41859436 C-37.81108288 8.79882521 -36.32604359 8.17610568 -34.84242249 7.55003357 C-29.83863154 5.46484375 -29.83863154 5.46484375 -27.6171875 5.46484375 C-27.2871875 4.80484375 -26.9571875 4.14484375 -26.6171875 3.46484375 C-24.8671875 2.75390625 -24.8671875 2.75390625 -22.6171875 2.08984375 C-20.16093071 1.36173906 -17.91348342 0.63198988 -15.67672729 -0.62980652 C-9.26253817 -4.09664798 -6.19083944 -3.49538473 0 0 Z M-58.6171875 28.46484375 C-55.83937874 31.24265251 -53.39378589 31.29334196 -49.5546875 32.02734375 C-48.28496094 32.27613281 -47.01523438 32.52492188 -45.70703125 32.78125 C-38.49640651 34.05016627 -31.33186802 34.62428489 -24.015625 34.66796875 C-22.82848152 34.67828629 -22.82848152 34.67828629 -21.61735535 34.68881226 C-19.07558527 34.70588687 -16.53401189 34.71226696 -13.9921875 34.71484375 C-13.12568573 34.7165155 -12.25918396 34.71818726 -11.36642456 34.71990967 C5.20415419 34.7218251 21.30348599 33.71081975 37.3828125 29.46484375 C36.8878125 28.47484375 36.8878125 28.47484375 36.3828125 27.46484375 C33.3928172 26.8393092 30.46429187 26.33362652 27.4453125 25.90234375 C26.62740234 25.77666016 25.80949219 25.65097656 24.96679688 25.52148438 C22.44175362 25.14262871 19.91435907 24.79730874 17.3828125 24.46484375 C16.29347412 24.31474854 16.29347412 24.31474854 15.18212891 24.16162109 C6.3755977 23.10392258 -2.51068988 23.22385128 -11.3671875 23.21484375 C-12.23180603 23.213172 -13.09642456 23.21150024 -13.98724365 23.20977783 C-36.82441764 22.73783055 -36.82441764 22.73783055 -58.6171875 28.46484375 Z " fill="#95333F" transform="translate(139.6171875,307.53515625)"/>
<path d="M0 0 C21.78 0 43.56 0 66 0 C66 1.32 66 2.64 66 4 C63.8125 5.4375 63.8125 5.4375 61 7 C60.175 7.86625 59.35 8.7325 58.5 9.625 C55.8612228 12.13183834 54.55746557 12.69507438 51 13 C52.20334813 9.3899556 53.24351928 8.89171412 56.375 6.875 C57.16648437 6.35679687 57.95796875 5.83859375 58.7734375 5.3046875 C61 4 61 4 64 3 C64 2.34 64 1.68 64 1 C42.88 1 21.76 1 0 1 C0 0.67 0 0.34 0 0 Z " fill="#72353C" transform="translate(466,317)"/>
<path d="M0 0 C0.66 0.33 1.32 0.66 2 1 C2 1.99 2 2.98 2 4 C-0.31 4.66 -2.62 5.32 -5 6 C-3.35 4.02 -1.7 2.04 0 0 Z " fill="#474747" transform="translate(279,496)"/>
<path d="" fill="#F8DFE4" transform="translate(0,0)"/>
</svg>
